<mxfile host="app.diagrams.net" modified="2022-01-12T02:59:25.176Z" agent="5.0 (Macintosh; Intel Mac OS X 10_15_7) AppleWebKit/605.1.15 (KHTML, like Gecko) Version/13.1.3 Safari/605.1.15" etag="QzpBzFKi1VZzHdvXjua4" version="15.9.4" type="github">
  <diagram id="C5RBs43oDa-KdzZeNtuy" name="Page-1">
    <mxGraphModel dx="946" dy="588" grid="1" gridSize="10" guides="1" tooltips="1" connect="1" arrows="1" fold="1" page="1" pageScale="1" pageWidth="827" pageHeight="1169" math="0" shadow="0">
      <root>
        <mxCell id="WIyWlLk6GJQsqaUBKTNV-0" />
        <mxCell id="WIyWlLk6GJQsqaUBKTNV-1" parent="WIyWlLk6GJQsqaUBKTNV-0" />
        <mxCell id="jFdv6aw44B4isEHPGvmu-0" style="edgeStyle=orthogonalEdgeStyle;rounded=0;orthogonalLoop=1;jettySize=auto;html=1;exitX=0.5;exitY=1;exitDx=0;exitDy=0;entryX=0.5;entryY=0;entryDx=0;entryDy=0;" edge="1" parent="WIyWlLk6GJQsqaUBKTNV-1" source="jFdv6aw44B4isEHPGvmu-1" target="jFdv6aw44B4isEHPGvmu-3">
          <mxGeometry relative="1" as="geometry" />
        </mxCell>
        <mxCell id="jFdv6aw44B4isEHPGvmu-1" value="开始" style="rounded=1;whiteSpace=wrap;html=1;" vertex="1" parent="WIyWlLk6GJQsqaUBKTNV-1">
          <mxGeometry x="190" y="70" width="70" height="30" as="geometry" />
        </mxCell>
        <mxCell id="jFdv6aw44B4isEHPGvmu-2" style="edgeStyle=orthogonalEdgeStyle;rounded=0;orthogonalLoop=1;jettySize=auto;html=1;exitX=0.5;exitY=1;exitDx=0;exitDy=0;entryX=0.5;entryY=0;entryDx=0;entryDy=0;" edge="1" parent="WIyWlLk6GJQsqaUBKTNV-1" source="jFdv6aw44B4isEHPGvmu-3" target="jFdv6aw44B4isEHPGvmu-5">
          <mxGeometry relative="1" as="geometry" />
        </mxCell>
        <mxCell id="jFdv6aw44B4isEHPGvmu-3" value="读取图像数据" style="shape=parallelogram;perimeter=parallelogramPerimeter;whiteSpace=wrap;html=1;fixedSize=1;" vertex="1" parent="WIyWlLk6GJQsqaUBKTNV-1">
          <mxGeometry x="165" y="120" width="115" height="40" as="geometry" />
        </mxCell>
        <mxCell id="jFdv6aw44B4isEHPGvmu-4" style="edgeStyle=orthogonalEdgeStyle;rounded=0;orthogonalLoop=1;jettySize=auto;html=1;exitX=0.5;exitY=1;exitDx=0;exitDy=0;entryX=0.5;entryY=0;entryDx=0;entryDy=0;" edge="1" parent="WIyWlLk6GJQsqaUBKTNV-1" source="jFdv6aw44B4isEHPGvmu-5" target="jFdv6aw44B4isEHPGvmu-7">
          <mxGeometry relative="1" as="geometry" />
        </mxCell>
        <mxCell id="jFdv6aw44B4isEHPGvmu-5" value="定义常用参数" style="rounded=0;whiteSpace=wrap;html=1;" vertex="1" parent="WIyWlLk6GJQsqaUBKTNV-1">
          <mxGeometry x="168.75" y="180" width="107.5" height="40" as="geometry" />
        </mxCell>
        <mxCell id="jFdv6aw44B4isEHPGvmu-6" style="edgeStyle=orthogonalEdgeStyle;rounded=0;orthogonalLoop=1;jettySize=auto;html=1;exitX=0.5;exitY=1;exitDx=0;exitDy=0;entryX=0.5;entryY=0;entryDx=0;entryDy=0;" edge="1" parent="WIyWlLk6GJQsqaUBKTNV-1" source="jFdv6aw44B4isEHPGvmu-7" target="jFdv6aw44B4isEHPGvmu-10">
          <mxGeometry relative="1" as="geometry" />
        </mxCell>
        <mxCell id="jFdv6aw44B4isEHPGvmu-7" value="生成Location Map" style="rounded=0;whiteSpace=wrap;html=1;" vertex="1" parent="WIyWlLk6GJQsqaUBKTNV-1">
          <mxGeometry x="168.75" y="240" width="107.5" height="40" as="geometry" />
        </mxCell>
        <mxCell id="jFdv6aw44B4isEHPGvmu-8" style="edgeStyle=orthogonalEdgeStyle;rounded=0;orthogonalLoop=1;jettySize=auto;html=1;exitX=0.5;exitY=1;exitDx=0;exitDy=0;entryX=0.5;entryY=0;entryDx=0;entryDy=0;" edge="1" parent="WIyWlLk6GJQsqaUBKTNV-1" source="jFdv6aw44B4isEHPGvmu-10" target="jFdv6aw44B4isEHPGvmu-12">
          <mxGeometry relative="1" as="geometry" />
        </mxCell>
        <mxCell id="jFdv6aw44B4isEHPGvmu-9" style="edgeStyle=orthogonalEdgeStyle;rounded=0;orthogonalLoop=1;jettySize=auto;html=1;exitX=1;exitY=0.5;exitDx=0;exitDy=0;" edge="1" parent="WIyWlLk6GJQsqaUBKTNV-1" source="jFdv6aw44B4isEHPGvmu-10">
          <mxGeometry relative="1" as="geometry">
            <mxPoint x="223" y="440" as="targetPoint" />
            <Array as="points">
              <mxPoint x="340" y="335" />
            </Array>
          </mxGeometry>
        </mxCell>
        <mxCell id="jFdv6aw44B4isEHPGvmu-10" value="Location Map长度==0？" style="rhombus;whiteSpace=wrap;html=1;" vertex="1" parent="WIyWlLk6GJQsqaUBKTNV-1">
          <mxGeometry x="127.5" y="300" width="190" height="70" as="geometry" />
        </mxCell>
        <mxCell id="jFdv6aw44B4isEHPGvmu-11" style="edgeStyle=orthogonalEdgeStyle;rounded=0;orthogonalLoop=1;jettySize=auto;html=1;exitX=0.5;exitY=1;exitDx=0;exitDy=0;entryX=0.5;entryY=0;entryDx=0;entryDy=0;" edge="1" parent="WIyWlLk6GJQsqaUBKTNV-1" source="jFdv6aw44B4isEHPGvmu-12" target="jFdv6aw44B4isEHPGvmu-14">
          <mxGeometry relative="1" as="geometry" />
        </mxCell>
        <mxCell id="jFdv6aw44B4isEHPGvmu-12" value="对Location Map执行算术编码" style="rounded=0;whiteSpace=wrap;html=1;" vertex="1" parent="WIyWlLk6GJQsqaUBKTNV-1">
          <mxGeometry x="168.75" y="393" width="107.5" height="40" as="geometry" />
        </mxCell>
        <mxCell id="jFdv6aw44B4isEHPGvmu-13" style="edgeStyle=orthogonalEdgeStyle;rounded=0;orthogonalLoop=1;jettySize=auto;html=1;exitX=0.5;exitY=1;exitDx=0;exitDy=0;entryX=0.5;entryY=0;entryDx=0;entryDy=0;" edge="1" parent="WIyWlLk6GJQsqaUBKTNV-1" source="jFdv6aw44B4isEHPGvmu-14" target="jFdv6aw44B4isEHPGvmu-16">
          <mxGeometry relative="1" as="geometry" />
        </mxCell>
        <mxCell id="jFdv6aw44B4isEHPGvmu-14" value="构造payload比特流" style="rounded=0;whiteSpace=wrap;html=1;" vertex="1" parent="WIyWlLk6GJQsqaUBKTNV-1">
          <mxGeometry x="168.75" y="460" width="107.5" height="40" as="geometry" />
        </mxCell>
        <mxCell id="jFdv6aw44B4isEHPGvmu-15" style="edgeStyle=orthogonalEdgeStyle;rounded=0;orthogonalLoop=1;jettySize=auto;html=1;exitX=0.5;exitY=1;exitDx=0;exitDy=0;entryX=0.5;entryY=0;entryDx=0;entryDy=0;" edge="1" parent="WIyWlLk6GJQsqaUBKTNV-1" source="jFdv6aw44B4isEHPGvmu-16" target="jFdv6aw44B4isEHPGvmu-18">
          <mxGeometry relative="1" as="geometry" />
        </mxCell>
        <mxCell id="jFdv6aw44B4isEHPGvmu-16" value="执行payload嵌入" style="rounded=0;whiteSpace=wrap;html=1;" vertex="1" parent="WIyWlLk6GJQsqaUBKTNV-1">
          <mxGeometry x="168.75" y="530" width="107.5" height="40" as="geometry" />
        </mxCell>
        <mxCell id="jFdv6aw44B4isEHPGvmu-17" style="edgeStyle=orthogonalEdgeStyle;rounded=0;orthogonalLoop=1;jettySize=auto;html=1;exitX=0.5;exitY=1;exitDx=0;exitDy=0;entryX=0.5;entryY=0;entryDx=0;entryDy=0;" edge="1" parent="WIyWlLk6GJQsqaUBKTNV-1" source="jFdv6aw44B4isEHPGvmu-18" target="jFdv6aw44B4isEHPGvmu-20">
          <mxGeometry relative="1" as="geometry" />
        </mxCell>
        <mxCell id="jFdv6aw44B4isEHPGvmu-18" value="构造overhead比特流" style="rounded=0;whiteSpace=wrap;html=1;" vertex="1" parent="WIyWlLk6GJQsqaUBKTNV-1">
          <mxGeometry x="161.75" y="600" width="121.25" height="40" as="geometry" />
        </mxCell>
        <mxCell id="jFdv6aw44B4isEHPGvmu-19" style="edgeStyle=orthogonalEdgeStyle;rounded=0;orthogonalLoop=1;jettySize=auto;html=1;exitX=0.5;exitY=1;exitDx=0;exitDy=0;entryX=0.5;entryY=0;entryDx=0;entryDy=0;" edge="1" parent="WIyWlLk6GJQsqaUBKTNV-1" source="jFdv6aw44B4isEHPGvmu-20" target="jFdv6aw44B4isEHPGvmu-22">
          <mxGeometry relative="1" as="geometry" />
        </mxCell>
        <mxCell id="jFdv6aw44B4isEHPGvmu-20" value="执行overhead嵌入" style="rounded=0;whiteSpace=wrap;html=1;" vertex="1" parent="WIyWlLk6GJQsqaUBKTNV-1">
          <mxGeometry x="161.75" y="670" width="121.25" height="40" as="geometry" />
        </mxCell>
        <mxCell id="jFdv6aw44B4isEHPGvmu-21" style="edgeStyle=orthogonalEdgeStyle;rounded=0;orthogonalLoop=1;jettySize=auto;html=1;exitX=0.5;exitY=1;exitDx=0;exitDy=0;entryX=0.5;entryY=0;entryDx=0;entryDy=0;" edge="1" parent="WIyWlLk6GJQsqaUBKTNV-1" source="jFdv6aw44B4isEHPGvmu-22" target="jFdv6aw44B4isEHPGvmu-24">
          <mxGeometry relative="1" as="geometry" />
        </mxCell>
        <mxCell id="jFdv6aw44B4isEHPGvmu-22" value="保存嵌入后的图像" style="rounded=0;whiteSpace=wrap;html=1;" vertex="1" parent="WIyWlLk6GJQsqaUBKTNV-1">
          <mxGeometry x="161.75" y="730" width="121.25" height="40" as="geometry" />
        </mxCell>
        <mxCell id="jFdv6aw44B4isEHPGvmu-23" style="edgeStyle=orthogonalEdgeStyle;rounded=0;orthogonalLoop=1;jettySize=auto;html=1;exitX=0.5;exitY=1;exitDx=0;exitDy=0;entryX=0.5;entryY=0;entryDx=0;entryDy=0;" edge="1" parent="WIyWlLk6GJQsqaUBKTNV-1" source="jFdv6aw44B4isEHPGvmu-24" target="jFdv6aw44B4isEHPGvmu-29">
          <mxGeometry relative="1" as="geometry" />
        </mxCell>
        <mxCell id="jFdv6aw44B4isEHPGvmu-24" value="计算PSNR值" style="rounded=0;whiteSpace=wrap;html=1;" vertex="1" parent="WIyWlLk6GJQsqaUBKTNV-1">
          <mxGeometry x="171.75" y="790" width="101.25" height="40" as="geometry" />
        </mxCell>
        <mxCell id="jFdv6aw44B4isEHPGvmu-25" value="结束" style="rounded=1;whiteSpace=wrap;html=1;" vertex="1" parent="WIyWlLk6GJQsqaUBKTNV-1">
          <mxGeometry x="187.38" y="916" width="70" height="30" as="geometry" />
        </mxCell>
        <mxCell id="jFdv6aw44B4isEHPGvmu-26" value="是" style="text;html=1;strokeColor=none;fillColor=none;align=center;verticalAlign=middle;whiteSpace=wrap;rounded=0;" vertex="1" parent="WIyWlLk6GJQsqaUBKTNV-1">
          <mxGeometry x="300" y="300" width="60" height="30" as="geometry" />
        </mxCell>
        <mxCell id="jFdv6aw44B4isEHPGvmu-27" value="否" style="text;html=1;strokeColor=none;fillColor=none;align=center;verticalAlign=middle;whiteSpace=wrap;rounded=0;" vertex="1" parent="WIyWlLk6GJQsqaUBKTNV-1">
          <mxGeometry x="180" y="363" width="60" height="30" as="geometry" />
        </mxCell>
        <mxCell id="jFdv6aw44B4isEHPGvmu-28" style="edgeStyle=orthogonalEdgeStyle;rounded=0;orthogonalLoop=1;jettySize=auto;html=1;exitX=0.5;exitY=1;exitDx=0;exitDy=0;entryX=0.5;entryY=0;entryDx=0;entryDy=0;" edge="1" parent="WIyWlLk6GJQsqaUBKTNV-1" source="jFdv6aw44B4isEHPGvmu-29" target="jFdv6aw44B4isEHPGvmu-25">
          <mxGeometry relative="1" as="geometry" />
        </mxCell>
        <mxCell id="jFdv6aw44B4isEHPGvmu-29" value="输出PSNR值" style="shape=parallelogram;perimeter=parallelogramPerimeter;whiteSpace=wrap;html=1;fixedSize=1;" vertex="1" parent="WIyWlLk6GJQsqaUBKTNV-1">
          <mxGeometry x="164.25" y="860" width="115" height="40" as="geometry" />
        </mxCell>
      </root>
    </mxGraphModel>
  </diagram>
</mxfile>
